<?xml version="1.0" standalone="no"?>
<!DOCTYPE svg PUBLIC "-//W3C//DTD SVG 20010904//EN"
 "http://www.w3.org/TR/2001/REC-SVG-20010904/DTD/svg10.dtd">
<svg version="1.0" xmlns="http://www.w3.org/2000/svg"
 width="860.000000pt" height="760.000000pt" viewBox="0 0 860.000000 760.000000"
 preserveAspectRatio="xMidYMid meet">

<g transform="translate(0.000000,760.000000) scale(0.100000,-0.100000)"
fill="#000000" stroke="none">
<path d="M6040 7104 c-19 -3 -87 -14 -152 -24 -64 -11 -136 -20 -160 -20 -48
0 -196 -38 -243 -62 -17 -9 -57 -24 -89 -33 -157 -46 -316 -128 -472 -242
-201 -149 -256 -200 -409 -389 -80 -99 -181 -276 -206 -361 -7 -24 -20 -50
-30 -59 -33 -30 -56 -9 -109 101 -27 58 -50 109 -50 114 0 5 -7 14 -16 22 -8
7 -27 36 -41 63 -32 64 -97 148 -165 216 -95 95 -284 260 -334 292 -160 103
-418 211 -567 237 -38 6 -90 20 -117 31 -26 10 -88 24 -137 30 -48 6 -104 13
-123 15 -57 7 -289 -25 -370 -50 -41 -13 -95 -27 -120 -31 -75 -11 -329 -92
-410 -130 -142 -68 -220 -112 -291 -165 -26 -19 -86 -61 -135 -94 -107 -73
-208 -171 -266 -258 -24 -35 -68 -102 -99 -148 -65 -98 -131 -239 -153 -325
-9 -34 -23 -78 -31 -98 -9 -20 -26 -76 -39 -124 -13 -48 -35 -114 -49 -147
-14 -33 -28 -87 -32 -120 -4 -33 -15 -112 -25 -175 -25 -156 -27 -613 -5 -832
35 -334 45 -395 89 -536 60 -188 155 -394 221 -477 18 -22 53 -71 78 -110 115
-173 114 -172 350 -420 257 -271 443 -453 485 -474 21 -11 45 -27 52 -36 8 -9
35 -27 62 -41 26 -13 52 -32 57 -43 6 -10 29 -26 53 -36 23 -9 57 -29 75 -45
18 -16 51 -34 73 -40 22 -6 55 -24 73 -39 17 -16 46 -36 64 -45 18 -9 37 -25
43 -36 6 -11 31 -31 55 -46 25 -14 45 -29 45 -33 0 -4 22 -20 49 -34 27 -15
54 -34 61 -42 8 -9 34 -28 59 -42 25 -15 60 -37 76 -50 17 -14 59 -43 95 -65
36 -22 83 -53 105 -68 22 -15 99 -58 170 -95 72 -38 144 -79 161 -92 17 -13
35 -23 41 -23 5 0 36 -16 69 -36 32 -21 77 -47 99 -59 121 -68 172 -98 190
-115 11 -10 36 -26 55 -35 19 -10 62 -36 95 -58 33 -23 79 -53 102 -69 23 -15
46 -28 51 -28 13 0 170 -115 280 -205 35 -29 77 -58 161 -114 20 -13 63 -49
96 -81 33 -32 83 -72 111 -89 28 -17 56 -42 62 -56 10 -22 18 -25 61 -25 41 0
51 4 65 24 8 14 43 39 77 57 65 35 113 86 168 181 35 60 139 203 222 305 30
37 72 94 93 127 39 61 232 260 301 311 22 16 74 62 115 101 81 78 147 128 225
170 28 15 68 39 90 54 22 15 85 56 141 91 186 117 308 202 396 273 47 39 112
91 143 116 31 25 71 59 88 75 18 17 59 53 90 80 102 88 249 237 357 361 118
135 162 193 203 268 16 28 37 60 47 71 10 11 27 39 38 63 22 45 38 67 148 195
85 100 125 165 197 322 100 222 118 291 147 580 11 106 38 263 48 280 13 21
16 45 19 208 2 92 0 167 -5 167 -16 0 -52 78 -58 126 -14 116 -57 359 -70 397
-8 23 -20 76 -25 117 -6 41 -20 95 -31 120 -11 25 -32 79 -48 120 -36 97 -164
341 -219 419 -12 16 -21 33 -21 38 0 4 -19 38 -43 75 -23 37 -53 87 -67 110
-41 70 -235 258 -338 326 -51 34 -95 62 -98 62 -3 0 -31 17 -62 39 -186 125
-289 170 -462 200 -30 5 -116 23 -190 41 -131 30 -278 44 -360 34z m415 -189
c144 -31 262 -79 420 -173 132 -78 167 -109 375 -328 232 -244 382 -472 472
-719 86 -234 117 -343 128 -445 13 -123 43 -277 70 -354 28 -82 34 -174 21
-330 -18 -220 -37 -326 -97 -531 -30 -104 -62 -214 -70 -244 -46 -162 -283
-525 -494 -757 -30 -33 -100 -111 -155 -173 -55 -62 -138 -147 -185 -189 -47
-42 -105 -98 -130 -125 -25 -26 -84 -78 -132 -115 -48 -37 -140 -108 -205
-159 -65 -51 -167 -129 -228 -174 -60 -45 -144 -112 -185 -149 -41 -37 -100
-84 -130 -105 -30 -22 -73 -51 -95 -67 -22 -15 -65 -48 -95 -73 -30 -24 -72
-57 -93 -72 -168 -122 -245 -184 -327 -265 -110 -107 -266 -290 -367 -430
-103 -142 -158 -202 -207 -228 -42 -23 -45 -23 -87 -7 -43 16 -120 72 -369
267 -119 93 -332 247 -438 317 -50 32 -187 113 -497 291 -71 41 -161 96 -200
121 -38 26 -126 80 -195 121 -69 40 -145 87 -170 104 -24 17 -94 63 -156 101
-93 58 -214 138 -344 225 -104 70 -176 123 -208 152 -20 18 -75 64 -122 102
-94 75 -115 94 -274 241 -219 200 -309 299 -469 514 -199 266 -309 490 -361
736 -34 158 -55 286 -65 385 -23 235 27 852 84 1030 13 41 40 120 60 175 21
55 53 142 71 193 84 229 185 377 370 539 56 48 123 112 149 141 58 64 99 89
251 151 66 26 169 71 229 99 137 63 184 76 360 99 201 26 401 24 533 -5 57
-13 124 -32 150 -44 26 -11 77 -31 114 -43 99 -35 214 -94 261 -135 23 -20 71
-56 107 -80 54 -36 169 -129 255 -207 45 -41 147 -190 195 -284 13 -24 35 -62
50 -84 81 -118 152 -253 181 -342 29 -88 62 -143 87 -143 6 0 19 8 31 18 16
13 26 43 41 122 39 206 61 255 228 506 130 196 195 267 322 355 41 29 91 67
110 85 104 98 214 163 445 262 136 58 357 104 590 122 83 7 152 14 154 16 11
10 173 2 236 -11z"/>
</g>
</svg>
